<svg xmlns="http://www.w3.org/2000/svg" xmlns:xlink="http://www.w3.org/1999/xlink" width="500" zoomAndPan="magnify" viewBox="0 0 375 374.999991" height="500" preserveAspectRatio="xMidYMid meet" version="1.0"><defs><g/><clipPath id="a92f3e14df"><path d="M 148.25 203.691406 L 252.5 203.691406 L 252.5 316.941406 L 148.25 316.941406 Z M 148.25 203.691406 " clip-rule="nonzero"/></clipPath><clipPath id="2f182427de"><path d="M 183 152 L 195 152 L 195 161 L 183 161 Z M 183 152 " clip-rule="nonzero"/></clipPath><clipPath id="7996c30fe1"><path d="M 122.4375 182.535156 L 166.566406 58.128906 L 225.941406 79.191406 L 181.8125 203.597656 Z M 122.4375 182.535156 " clip-rule="nonzero"/></clipPath><clipPath id="cd52278661"><path d="M 93.894531 263 L 166.355469 58.722656 L 226.4375 80.035156 L 153.976562 284.3125 Z M 93.894531 263 " clip-rule="nonzero"/></clipPath><clipPath id="c74cd5e60f"><path d="M 93.894531 263 L 166.355469 58.722656 L 226.4375 80.035156 L 153.976562 284.3125 Z M 93.894531 263 " clip-rule="nonzero"/></clipPath><clipPath id="39e80be368"><path d="M 175 96 L 185 96 L 185 104 L 175 104 Z M 175 96 " clip-rule="nonzero"/></clipPath><clipPath id="3f00b7890c"><path d="M 122.4375 182.535156 L 166.566406 58.128906 L 225.941406 79.191406 L 181.8125 203.597656 Z M 122.4375 182.535156 " clip-rule="nonzero"/></clipPath><clipPath id="d1f276bbad"><path d="M 93.894531 263 L 166.355469 58.722656 L 226.4375 80.035156 L 153.976562 284.3125 Z M 93.894531 263 " clip-rule="nonzero"/></clipPath><clipPath id="f7c7d8c3c5"><path d="M 93.894531 263 L 166.355469 58.722656 L 226.4375 80.035156 L 153.976562 284.3125 Z M 93.894531 263 " clip-rule="nonzero"/></clipPath><clipPath id="605bc73fc7"><path d="M 201 73 L 209 73 L 209 83 L 201 83 Z M 201 73 " clip-rule="nonzero"/></clipPath><clipPath id="ec13200561"><path d="M 122.4375 182.535156 L 166.566406 58.128906 L 225.941406 79.191406 L 181.8125 203.597656 Z M 122.4375 182.535156 " clip-rule="nonzero"/></clipPath><clipPath id="93cbccc181"><path d="M 93.894531 263 L 166.355469 58.722656 L 226.4375 80.035156 L 153.976562 284.3125 Z M 93.894531 263 " clip-rule="nonzero"/></clipPath><clipPath id="7702492d5b"><path d="M 93.894531 263 L 166.355469 58.722656 L 226.4375 80.035156 L 153.976562 284.3125 Z M 93.894531 263 " clip-rule="nonzero"/></clipPath><clipPath id="c822af9fc9"><path d="M 200.613281 81.714844 L 204.0625 71.988281 L 209.878906 74.054688 L 206.429688 83.777344 Z M 200.613281 81.714844 " clip-rule="nonzero"/></clipPath><clipPath id="7331ad610a"><path d="M 200.613281 81.714844 L 203.964844 72.261719 L 209.78125 74.324219 L 206.429688 83.777344 Z M 200.613281 81.714844 " clip-rule="nonzero"/></clipPath><clipPath id="380bab11c1"><path d="M 203 87 L 216 87 L 216 95 L 203 95 Z M 203 87 " clip-rule="nonzero"/></clipPath><clipPath id="537042edb0"><path d="M 122.4375 182.535156 L 166.566406 58.128906 L 225.941406 79.191406 L 181.8125 203.597656 Z M 122.4375 182.535156 " clip-rule="nonzero"/></clipPath><clipPath id="056e4636b1"><path d="M 93.894531 263 L 166.355469 58.722656 L 226.4375 80.035156 L 153.976562 284.3125 Z M 93.894531 263 " clip-rule="nonzero"/></clipPath><clipPath id="a441fa7e0a"><path d="M 93.894531 263 L 166.355469 58.722656 L 226.4375 80.035156 L 153.976562 284.3125 Z M 93.894531 263 " clip-rule="nonzero"/></clipPath><clipPath id="1a71b7c372"><path d="M 190 72 L 197 72 L 197 85 L 190 85 Z M 190 72 " clip-rule="nonzero"/></clipPath><clipPath id="108d87658f"><path d="M 122.4375 182.535156 L 166.566406 58.128906 L 225.941406 79.191406 L 181.8125 203.597656 Z M 122.4375 182.535156 " clip-rule="nonzero"/></clipPath><clipPath id="bf3de4378f"><path d="M 93.894531 263 L 166.355469 58.722656 L 226.4375 80.035156 L 153.976562 284.3125 Z M 93.894531 263 " clip-rule="nonzero"/></clipPath><clipPath id="9a25a82aa5"><path d="M 93.894531 263 L 166.355469 58.722656 L 226.4375 80.035156 L 153.976562 284.3125 Z M 93.894531 263 " clip-rule="nonzero"/></clipPath><clipPath id="a4e104578c"><path d="M 170 86 L 178 86 L 178 97 L 170 97 Z M 170 86 " clip-rule="nonzero"/></clipPath><clipPath id="250b8319be"><path d="M 122.4375 182.535156 L 166.566406 58.128906 L 225.941406 79.191406 L 181.8125 203.597656 Z M 122.4375 182.535156 " clip-rule="nonzero"/></clipPath><clipPath id="588558643b"><path d="M 93.894531 263 L 166.355469 58.722656 L 226.4375 80.035156 L 153.976562 284.3125 Z M 93.894531 263 " clip-rule="nonzero"/></clipPath><clipPath id="17d04ad529"><path d="M 93.894531 263 L 166.355469 58.722656 L 226.4375 80.035156 L 153.976562 284.3125 Z M 93.894531 263 " clip-rule="nonzero"/></clipPath><clipPath id="b6a52f1915"><path d="M 143 142 L 154 142 L 154 155 L 143 155 Z M 143 142 " clip-rule="nonzero"/></clipPath><clipPath id="982e8c24ef"><path d="M 122.4375 182.535156 L 166.566406 58.128906 L 225.941406 79.191406 L 181.8125 203.597656 Z M 122.4375 182.535156 " clip-rule="nonzero"/></clipPath><clipPath id="de580638f3"><path d="M 93.894531 263 L 166.355469 58.722656 L 226.4375 80.035156 L 153.976562 284.3125 Z M 93.894531 263 " clip-rule="nonzero"/></clipPath><clipPath id="34f0c58cb0"><path d="M 93.894531 263 L 166.355469 58.722656 L 226.4375 80.035156 L 153.976562 284.3125 Z M 93.894531 263 " clip-rule="nonzero"/></clipPath><clipPath id="5afa245341"><path d="M 165 148 L 175 148 L 175 161 L 165 161 Z M 165 148 " clip-rule="nonzero"/></clipPath><clipPath id="12ab7324ab"><path d="M 122.4375 182.535156 L 166.566406 58.128906 L 225.941406 79.191406 L 181.8125 203.597656 Z M 122.4375 182.535156 " clip-rule="nonzero"/></clipPath><clipPath id="d8e3fd8aab"><path d="M 93.894531 263 L 166.355469 58.722656 L 226.4375 80.035156 L 153.976562 284.3125 Z M 93.894531 263 " clip-rule="nonzero"/></clipPath><clipPath id="50e23872cd"><path d="M 93.894531 263 L 166.355469 58.722656 L 226.4375 80.035156 L 153.976562 284.3125 Z M 93.894531 263 " clip-rule="nonzero"/></clipPath><clipPath id="8dd610fde4"><path d="M 179 167 L 194 167 L 194 176 L 179 176 Z M 179 167 " clip-rule="nonzero"/></clipPath><clipPath id="9456c488fb"><path d="M 122.4375 182.535156 L 166.566406 58.128906 L 225.941406 79.191406 L 181.8125 203.597656 Z M 122.4375 182.535156 " clip-rule="nonzero"/></clipPath><clipPath id="f73c7bd800"><path d="M 93.894531 263 L 166.355469 58.722656 L 226.4375 80.035156 L 153.976562 284.3125 Z M 93.894531 263 " clip-rule="nonzero"/></clipPath><clipPath id="2fa6735f09"><path d="M 93.894531 263 L 166.355469 58.722656 L 226.4375 80.035156 L 153.976562 284.3125 Z M 93.894531 263 " clip-rule="nonzero"/></clipPath><clipPath id="a80b38000b"><path d="M 177.945312 173.757812 L 181 165.144531 L 194.570312 169.960938 L 191.515625 178.570312 Z M 177.945312 173.757812 " clip-rule="nonzero"/></clipPath><clipPath id="a61bb803b6"><path d="M 177.945312 173.757812 L 181 165.144531 L 194.53125 169.945312 L 191.476562 178.558594 Z M 177.945312 173.757812 " clip-rule="nonzero"/></clipPath><clipPath id="841d997a2c"><path d="M 172 106 L 185 106 L 185 114 L 172 114 Z M 172 106 " clip-rule="nonzero"/></clipPath><clipPath id="9a58974859"><path d="M 122.4375 182.535156 L 166.566406 58.128906 L 225.941406 79.191406 L 181.8125 203.597656 Z M 122.4375 182.535156 " clip-rule="nonzero"/></clipPath><clipPath id="0d8e608a9a"><path d="M 93.894531 263 L 166.355469 58.722656 L 226.4375 80.035156 L 153.976562 284.3125 Z M 93.894531 263 " clip-rule="nonzero"/></clipPath><clipPath id="a695cc3db1"><path d="M 93.894531 263 L 166.355469 58.722656 L 226.4375 80.035156 L 153.976562 284.3125 Z M 93.894531 263 " clip-rule="nonzero"/></clipPath><clipPath id="a5d8806397"><path d="M 178 135 L 192 135 L 192 148 L 178 148 Z M 178 135 " clip-rule="nonzero"/></clipPath><clipPath id="4326d94c0f"><path d="M 122.4375 182.535156 L 166.566406 58.128906 L 225.941406 79.191406 L 181.8125 203.597656 Z M 122.4375 182.535156 " clip-rule="nonzero"/></clipPath><clipPath id="4ba532a8b5"><path d="M 93.894531 263 L 166.355469 58.722656 L 226.4375 80.035156 L 153.976562 284.3125 Z M 93.894531 263 " clip-rule="nonzero"/></clipPath><clipPath id="79fa63da95"><path d="M 93.894531 263 L 166.355469 58.722656 L 226.4375 80.035156 L 153.976562 284.3125 Z M 93.894531 263 " clip-rule="nonzero"/></clipPath><clipPath id="ac8dd706c3"><path d="M 154 91 L 165 91 L 165 102 L 154 102 Z M 154 91 " clip-rule="nonzero"/></clipPath><clipPath id="09176348e4"><path d="M 122.4375 182.535156 L 166.566406 58.128906 L 225.941406 79.191406 L 181.8125 203.597656 Z M 122.4375 182.535156 " clip-rule="nonzero"/></clipPath><clipPath id="3c9d4ba627"><path d="M 93.894531 263 L 166.355469 58.722656 L 226.4375 80.035156 L 153.976562 284.3125 Z M 93.894531 263 " clip-rule="nonzero"/></clipPath><clipPath id="bd7115d5c7"><path d="M 93.894531 263 L 166.355469 58.722656 L 226.4375 80.035156 L 153.976562 284.3125 Z M 93.894531 263 " clip-rule="nonzero"/></clipPath><clipPath id="b4096b8ee5"><path d="M 165 118 L 178 118 L 178 126 L 165 126 Z M 165 118 " clip-rule="nonzero"/></clipPath><clipPath id="0de10768e8"><path d="M 122.4375 182.535156 L 166.566406 58.128906 L 225.941406 79.191406 L 181.8125 203.597656 Z M 122.4375 182.535156 " clip-rule="nonzero"/></clipPath><clipPath id="09481a1cb9"><path d="M 93.894531 263 L 166.355469 58.722656 L 226.4375 80.035156 L 153.976562 284.3125 Z M 93.894531 263 " clip-rule="nonzero"/></clipPath><clipPath id="c102396fe3"><path d="M 93.894531 263 L 166.355469 58.722656 L 226.4375 80.035156 L 153.976562 284.3125 Z M 93.894531 263 " clip-rule="nonzero"/></clipPath><clipPath id="5b6117e7b8"><path d="M 152 106 L 164 106 L 164 117 L 152 117 Z M 152 106 " clip-rule="nonzero"/></clipPath><clipPath id="b0ee83e50f"><path d="M 122.4375 182.535156 L 166.566406 58.128906 L 225.941406 79.191406 L 181.8125 203.597656 Z M 122.4375 182.535156 " clip-rule="nonzero"/></clipPath><clipPath id="71a9f7b1cd"><path d="M 93.894531 263 L 166.355469 58.722656 L 226.4375 80.035156 L 153.976562 284.3125 Z M 93.894531 263 " clip-rule="nonzero"/></clipPath><clipPath id="4590edc376"><path d="M 93.894531 263 L 166.355469 58.722656 L 226.4375 80.035156 L 153.976562 284.3125 Z M 93.894531 263 " clip-rule="nonzero"/></clipPath><clipPath id="9f895c6af7"><path d="M 153 118 L 160 118 L 160 129 L 153 129 Z M 153 118 " clip-rule="nonzero"/></clipPath><clipPath id="e7a4e2258c"><path d="M 122.4375 182.535156 L 166.566406 58.128906 L 225.941406 79.191406 L 181.8125 203.597656 Z M 122.4375 182.535156 " clip-rule="nonzero"/></clipPath><clipPath id="df1a60245e"><path d="M 93.894531 263 L 166.355469 58.722656 L 226.4375 80.035156 L 153.976562 284.3125 Z M 93.894531 263 " clip-rule="nonzero"/></clipPath><clipPath id="620e8ab29e"><path d="M 93.894531 263 L 166.355469 58.722656 L 226.4375 80.035156 L 153.976562 284.3125 Z M 93.894531 263 " clip-rule="nonzero"/></clipPath><clipPath id="ea4ab229ee"><path d="M 196 100 L 213 100 L 213 110 L 196 110 Z M 196 100 " clip-rule="nonzero"/></clipPath><clipPath id="445ae5d24e"><path d="M 122.4375 182.535156 L 166.566406 58.128906 L 225.941406 79.191406 L 181.8125 203.597656 Z M 122.4375 182.535156 " clip-rule="nonzero"/></clipPath><clipPath id="58c1770fb2"><path d="M 93.894531 263 L 166.355469 58.722656 L 226.4375 80.035156 L 153.976562 284.3125 Z M 93.894531 263 " clip-rule="nonzero"/></clipPath><clipPath id="8057b904dd"><path d="M 93.894531 263 L 166.355469 58.722656 L 226.4375 80.035156 L 153.976562 284.3125 Z M 93.894531 263 " clip-rule="nonzero"/></clipPath><clipPath id="018d776019"><path d="M 122 83 L 205 83 L 205 204 L 122 204 Z M 122 83 " clip-rule="nonzero"/></clipPath><clipPath id="6ed9316775"><path d="M 122.4375 182.535156 L 166.566406 58.128906 L 225.941406 79.191406 L 181.8125 203.597656 Z M 122.4375 182.535156 " clip-rule="nonzero"/></clipPath><clipPath id="8073b09749"><path d="M 93.894531 263 L 166.355469 58.722656 L 226.4375 80.035156 L 153.976562 284.3125 Z M 93.894531 263 " clip-rule="nonzero"/></clipPath><clipPath id="b2b6ee6144"><path d="M 93.894531 263 L 166.355469 58.722656 L 226.4375 80.035156 L 153.976562 284.3125 Z M 93.894531 263 " clip-rule="nonzero"/></clipPath></defs><g clip-path="url(#a92f3e14df)"><path fill="#3d2419" d="M 204.109375 256.304688 C 202.878906 259.523438 203.851562 263.039062 203.035156 263.574219 C 201.898438 264.308594 201.488281 266.273438 201.078125 268.003906 C 200.707031 268.105469 199.363281 268.5 198.695312 269 C 198.027344 269.488281 197.777344 270.320312 197.542969 270.320312 C 197.035156 270.324219 196.5 271.171875 196.089844 271.351562 C 195.429688 271.652344 193.917969 271.269531 193.203125 271.382812 C 192.558594 271.488281 191.289062 272.035156 190.816406 272.492188 C 190.515625 272.777344 189.921875 273.90625 189.921875 273.90625 L 189.96875 273.9375 C 189.96875 273.9375 190.621094 272.929688 190.925781 272.671875 C 191.433594 272.25 192.710938 271.765625 193.363281 271.664062 C 194.0625 271.546875 195.539062 271.816406 196.210938 271.574219 C 196.664062 271.414062 197.417969 270.640625 197.824219 270.566406 C 198.257812 270.5 198.679688 269.53125 199.058594 269.304688 C 199.402344 269.105469 200.320312 268.898438 200.882812 268.789062 C 200.707031 269.46875 200.503906 270.070312 200.230469 270.484375 C 198.570312 273.011719 192.382812 275.097656 190.128906 277.109375 C 188.945312 278.167969 187.371094 280.207031 186.121094 282.261719 C 185.734375 281.441406 185.441406 280.675781 185.328125 280.015625 C 185.011719 278.128906 185.773438 274.144531 186.734375 272.492188 C 187.703125 270.808594 192.027344 269.304688 192.636719 267.460938 C 193.035156 266.261719 191.761719 263.652344 192.070312 262.425781 C 192.730469 259.816406 196.726562 255.730469 197.574219 253.171875 C 198.679688 249.804688 197.503906 242.539062 196.769531 238.792969 C 198.519531 235.9375 199.351562 234.175781 199.351562 234.175781 C 199.351562 234.175781 201.902344 239.886719 203.804688 241.632812 C 205.976562 243.632812 208.210938 245.640625 210.113281 247.621094 C 208.816406 249.082031 205.285156 253.230469 204.109375 256.304688 Z M 250.972656 290.5 C 250.136719 289.824219 248.050781 289.039062 247 288.8125 C 245.828125 288.558594 243.3125 289.179688 242.207031 288.710938 C 241.546875 288.433594 240.636719 287.164062 239.796875 287.148438 C 239.410156 287.144531 238.984375 285.902344 237.882812 285.164062 C 236.828125 284.453125 234.753906 283.867188 234.011719 283.671875 L 227.28125 277.648438 L 223.035156 265.546875 L 221.734375 261.835938 C 222.667969 262.011719 224.15625 262.328125 224.734375 262.640625 C 225.34375 262.976562 226.09375 264.453125 226.789062 264.539062 C 227.433594 264.621094 228.746094 265.773438 229.464844 266.0625 C 230.566406 266.496094 233.039062 266.007812 234.195312 266.25 C 235.257812 266.464844 237.359375 267.167969 238.246094 267.796875 C 238.746094 268.15625 239.835938 269.691406 239.835938 269.691406 L 239.917969 269.644531 C 239.917969 269.644531 238.933594 267.929688 238.429688 267.527344 C 237.59375 266.847656 235.511719 266.0625 234.460938 265.835938 C 233.285156 265.582031 230.777344 266.203125 229.667969 265.734375 C 229.003906 265.457031 228.09375 264.191406 227.257812 264.175781 C 226.867188 264.171875 226.445312 262.929688 225.335938 262.191406 C 224.203125 261.425781 221.871094 260.800781 221.324219 260.660156 L 219.867188 256.507812 C 219.921875 255.890625 219.890625 255.304688 219.722656 254.746094 C 217.539062 247.613281 208.722656 240.765625 206.496094 234.980469 C 203.46875 227.101562 205.167969 208.523438 204.914062 203.8125 L 197.597656 203.8125 C 199.304688 220.988281 194.035156 240.992188 185.28125 248.621094 C 184.859375 248.992188 184.441406 249.351562 184.035156 249.695312 C 183.386719 249.875 180.492188 250.699219 179.082031 251.746094 C 177.726562 252.742188 177.207031 254.449219 176.734375 254.449219 C 175.691406 254.457031 174.597656 256.1875 173.765625 256.5625 C 172.417969 257.160156 169.324219 256.382812 167.863281 256.621094 C 166.535156 256.824219 163.945312 257.949219 162.976562 258.882812 C 162.363281 259.476562 161.15625 261.769531 161.15625 261.769531 L 161.257812 261.839844 C 161.257812 261.839844 162.59375 259.777344 163.210938 259.257812 C 164.242188 258.386719 166.859375 257.402344 168.191406 257.183594 C 169.628906 256.949219 172.640625 257.503906 174.011719 257.011719 C 174.929688 256.683594 176.488281 255.089844 177.304688 254.957031 C 178.195312 254.808594 179.054688 252.835938 179.835938 252.375 C 180.195312 252.164062 180.867188 251.949219 181.585938 251.761719 C 176.558594 255.980469 173.234375 258.804688 173.570312 262.507812 C 173.640625 263.292969 173.777344 264.0625 173.953125 264.804688 C 173.035156 265.613281 171.730469 266.863281 171.125 267.917969 C 170.28125 269.378906 170.484375 271.152344 170.046875 271.34375 C 169.101562 271.765625 168.789062 273.792969 168.171875 274.46875 C 167.179688 275.5625 164.03125 276.09375 162.789062 276.894531 C 162.210938 277.265625 161.429688 277.984375 160.730469 278.765625 C 160.316406 278.785156 158.910156 278.882812 158.140625 279.222656 C 157.363281 279.566406 156.921875 280.34375 156.6875 280.289062 C 156.175781 280.179688 155.449219 280.90625 155.003906 281 C 154.277344 281.148438 152.84375 280.425781 152.101562 280.382812 C 151.421875 280.335938 150.039062 280.605469 149.457031 280.953125 C 149.089844 281.179688 148.25 282.171875 148.25 282.171875 L 148.289062 282.21875 C 148.289062 282.21875 149.167969 281.351562 149.527344 281.164062 C 150.132812 280.851562 151.523438 280.648438 152.199219 280.695312 C 152.929688 280.746094 154.351562 281.382812 155.074219 281.246094 C 155.554688 281.164062 156.613281 280.308594 156.914062 280.601562 L 158.4375 279.613281 L 160.179688 279.421875 C 159.753906 279.964844 159.398438 280.5 159.21875 280.929688 C 158.890625 281.722656 158.695312 284.3125 158.695312 284.3125 L 158.816406 284.335938 C 158.816406 284.335938 159.214844 281.90625 159.578125 281.183594 C 160.179688 279.972656 162.179688 278.015625 163.3125 277.28125 C 164.535156 276.488281 167.519531 275.78125 168.582031 274.78125 C 169.285156 274.113281 170.078125 272.035156 170.777344 271.578125 C 171.53125 271.082031 171.527344 268.925781 172.066406 268.195312 C 172.4375 267.679688 173.460938 266.875 174.347656 266.230469 C 175.746094 270.75 178.25 274.328125 176.511719 276.09375 C 171.105469 281.578125 166.558594 286.347656 166.558594 286.347656 L 167.148438 286.683594 C 169.460938 284.109375 173.234375 281.75 175.796875 279.476562 C 176.679688 280.601562 177.925781 282.652344 177.335938 284.734375 C 177.011719 285.886719 176.65625 286.761719 174.476562 288.992188 L 174.738281 289.03125 C 174.738281 289.03125 177.304688 286.800781 178.074219 285.398438 C 178.835938 284.011719 177.898438 280.195312 177.261719 278.007812 C 178.136719 276.984375 178.644531 275.96875 178.507812 274.953125 C 177.519531 267.632812 176.175781 266.261719 175.648438 262.867188 C 174.777344 257.261719 185.335938 253.820312 187.96875 250.769531 C 189.941406 248.484375 191.636719 246.304688 193.074219 244.324219 C 193.914062 246.800781 195.066406 250.570312 194.902344 252.277344 C 194.644531 255.070312 190.667969 259.675781 190.128906 262.425781 C 189.914062 263.515625 191.152344 265.742188 190.859375 266.808594 C 190.328125 268.707031 186.027344 270.429688 185.113281 272.171875 C 184.132812 274.042969 183.425781 278.484375 183.875 280.554688 C 184.066406 281.457031 184.632812 282.519531 185.328125 283.65625 C 184.792969 284.671875 184.382812 285.632812 184.195312 286.417969 C 183.78125 288.117188 184.222656 293.410156 184.222656 293.410156 L 184.476562 293.421875 C 184.476562 293.421875 184.503906 288.382812 185.003906 286.800781 C 185.199219 286.179688 185.539062 285.449219 185.96875 284.671875 C 187.542969 287.113281 189.402344 289.734375 189.425781 291.652344 C 189.464844 294.523438 184.816406 298.625 183.363281 301.757812 C 182.769531 301.804688 181.71875 301.914062 181.089844 302.191406 C 180.308594 302.539062 179.875 303.3125 179.640625 303.269531 C 179.128906 303.15625 178.402344 303.882812 177.953125 303.976562 C 177.226562 304.121094 175.792969 303.402344 175.050781 303.355469 C 174.378906 303.3125 173.003906 303.605469 172.410156 303.929688 C 172.03125 304.136719 171.203125 305.148438 171.203125 305.148438 L 171.242188 305.191406 C 171.242188 305.191406 172.117188 304.316406 172.484375 304.136719 C 173.097656 303.851562 174.476562 303.628906 175.152344 303.667969 C 175.882812 303.714844 177.304688 304.316406 178.023438 304.222656 C 178.511719 304.15625 179.449219 303.535156 179.867188 303.574219 C 180.320312 303.617188 181.390625 302.589844 181.390625 302.589844 L 183.082031 302.515625 C 183.039062 302.667969 182.992188 302.824219 182.964844 302.96875 C 182.722656 304.511719 185.179688 308.800781 185.179688 308.800781 L 185.269531 308.292969 C 185.269531 308.292969 183.878906 304.160156 184.207031 302.800781 C 184.949219 299.730469 190.367188 294.949219 190.410156 291.789062 C 190.4375 289.5625 188.234375 286.28125 186.707031 283.425781 C 188.105469 281.214844 189.980469 278.898438 191.308594 277.730469 C 192.214844 276.933594 193.71875 276.085938 195.300781 275.199219 C 195.292969 275.730469 195.269531 276.351562 195.171875 276.640625 C 195.035156 277.066406 194.160156 277.683594 194.195312 278.125 C 194.230469 278.53125 193.640625 279.441406 193.546875 279.910156 C 193.414062 280.609375 194.058594 282.011719 194.050781 282.722656 C 194.050781 283.390625 193.855469 284.730469 193.570312 285.328125 C 193.398438 285.683594 192.53125 286.527344 192.53125 286.527344 L 192.578125 286.566406 C 192.578125 286.566406 193.570312 285.769531 193.769531 285.398438 C 194.089844 284.824219 194.351562 283.484375 194.359375 282.824219 C 194.367188 282.101562 193.640625 280.691406 193.789062 279.984375 C 193.878906 279.546875 194.601562 278.84375 194.496094 278.34375 C 194.449219 278.117188 195.207031 277.691406 195.546875 276.941406 C 195.8125 276.359375 195.9375 275.402344 195.992188 274.808594 C 198.125 273.601562 200.257812 272.320312 201.15625 270.984375 C 202.253906 269.351562 202.578125 264.402344 204.121094 263.667969 C 205.871094 262.835938 203.976562 260.273438 205.367188 256.28125 C 206.039062 254.363281 210.316406 251.066406 212.042969 249.792969 C 213.472656 251.546875 214.519531 253.277344 214.882812 254.957031 C 215.757812 258.972656 211.90625 271.125 211.90625 271.125 C 211.277344 272.253906 210.722656 273.566406 210.238281 274.972656 C 209.519531 275.109375 202.988281 276.414062 201.863281 278.246094 C 201.03125 279.613281 200.363281 282.949219 200.363281 282.949219 L 200.523438 283.160156 C 201.6875 279.941406 201.976562 279.542969 202.816406 278.683594 C 204.597656 276.875 208.097656 277.183594 209.492188 277.394531 C 207.5625 284.339844 207.050781 292.273438 207.050781 292.273438 L 207.390625 292.480469 C 207.453125 291.027344 207.671875 289.621094 207.976562 288.269531 C 208.421875 289.261719 209.324219 291.367188 209.402344 292.273438 C 209.480469 293.171875 208.363281 295.015625 208.753906 295.832031 C 209.121094 296.585938 208.722656 298.777344 208.976562 299.714844 C 209.367188 301.125 211.5 303.308594 212.191406 304.589844 C 212.832031 305.785156 213.433594 308.519531 213.375 309.871094 C 213.339844 310.679688 212.394531 312.964844 212.394531 312.964844 L 212.507812 313.007812 C 212.507812 313.007812 213.722656 310.695312 213.8125 309.847656 C 213.847656 309.484375 213.839844 309.019531 213.796875 308.511719 L 214.976562 309.363281 C 214.976562 309.363281 215.339844 310.523438 215.878906 310.953125 C 216.207031 311.222656 216.640625 312.207031 217.011719 312.511719 C 217.578125 312.972656 219.109375 313.191406 219.753906 313.53125 C 220.351562 313.847656 221.4375 314.738281 221.792969 315.320312 C 222.007812 315.667969 222.3125 316.867188 222.3125 316.867188 L 222.367188 316.851562 C 222.367188 316.851562 222.164062 315.5625 221.964844 315.179688 C 221.648438 314.582031 220.601562 313.628906 220 313.316406 C 219.335938 312.972656 217.722656 312.863281 217.199219 312.335938 C 216.878906 312.015625 216.726562 310.976562 216.234375 310.804688 C 216.007812 310.722656 215.917969 309.878906 215.4375 309.183594 C 215.035156 308.605469 214.175781 307.953125 213.695312 307.613281 C 213.523438 306.441406 213.210938 305.21875 212.839844 304.53125 C 212.128906 303.238281 209.773438 301.109375 209.488281 299.660156 C 209.316406 298.765625 210.09375 296.867188 209.5 296.015625 C 209.222656 295.621094 210.3125 294.210938 210.347656 292.527344 C 210.386719 290.855469 208.859375 287.675781 208.375 286.707031 C 210.3125 279.898438 214.398438 274.980469 214.398438 274.980469 L 221.480469 286.964844 L 222.652344 286.375 L 214.785156 269.960938 C 215.3125 267.273438 216.558594 264.75 217.691406 262.4375 L 220.269531 267.703125 C 220.269531 267.703125 224.5625 277.183594 224.914062 279.238281 L 233.40625 285.0625 C 233.40625 285.0625 234.90625 291.457031 233.851562 296.851562 C 233.128906 300.5625 229.523438 303.246094 230.128906 305.242188 C 230.589844 306.78125 234.496094 309.929688 234.496094 309.929688 L 235.039062 309.121094 C 235.039062 309.121094 231.335938 306.605469 230.90625 305.257812 C 230.273438 303.28125 233.953125 300.683594 234.816406 297.015625 C 235.960938 292.144531 235.324219 286.433594 235.132812 284.984375 C 235.949219 285.160156 236.855469 285.386719 237.273438 285.609375 C 237.886719 285.953125 238.632812 287.421875 239.332031 287.515625 C 239.976562 287.59375 241.285156 288.753906 242.003906 289.03125 C 243.101562 289.46875 245.574219 288.980469 246.734375 289.21875 C 247.792969 289.4375 249.898438 290.136719 250.785156 290.773438 C 251.285156 291.128906 252.375 292.667969 252.375 292.667969 L 252.457031 292.617188 C 252.457031 292.617188 251.472656 290.910156 250.972656 290.5 " fill-opacity="1" fill-rule="nonzero"/></g><g clip-path="url(#2f182427de)"><g clip-path="url(#7996c30fe1)"><g clip-path="url(#cd52278661)"><g clip-path="url(#c74cd5e60f)"><path fill="#31632d" d="M 194.726562 154.277344 C 194.726562 154.277344 193.65625 153.566406 191.96875 153.203125 C 190.308594 152.816406 188 152.910156 186.441406 153.871094 C 184.886719 154.796875 183.851562 155.984375 183.460938 157.046875 C 183.0625 158.121094 183.304688 159.046875 184.121094 159.730469 C 185.832031 161.089844 187.453125 160.300781 189.535156 159.066406 C 190.566406 158.429688 191.609375 157.183594 192.6875 156.144531 C 193.734375 155.09375 194.726562 154.277344 194.726562 154.277344 " fill-opacity="1" fill-rule="nonzero"/></g></g></g></g><g clip-path="url(#39e80be368)"><g clip-path="url(#3f00b7890c)"><g clip-path="url(#d1f276bbad)"><g clip-path="url(#f7c7d8c3c5)"><path fill="#31632d" d="M 184.257812 96.445312 C 184.257812 96.445312 183.816406 97.554688 183.425781 98.820312 C 183.007812 100.09375 182.703125 101.464844 182.085938 102.207031 C 181.449219 102.953125 180.832031 103.503906 180.078125 103.792969 C 179.328125 104.074219 178.4375 104.113281 177.359375 103.648438 C 176.300781 103.195312 175.714844 102.4375 175.667969 101.410156 C 175.613281 100.398438 176.105469 99.132812 177.113281 97.957031 C 178.117188 96.75 180.0625 96.144531 181.589844 96.109375 C 183.136719 96.046875 184.257812 96.445312 184.257812 96.445312 " fill-opacity="1" fill-rule="nonzero"/></g></g></g></g><g clip-path="url(#605bc73fc7)"><g clip-path="url(#ec13200561)"><g clip-path="url(#93cbccc181)"><g clip-path="url(#7702492d5b)"><g clip-path="url(#c822af9fc9)"><g clip-path="url(#7331ad610a)"><path fill="#92d122" d="M 208.019531 73.699219 C 208.019531 73.699219 208.003906 74.882812 207.984375 76.109375 C 207.964844 77.410156 208.007812 78.832031 207.605469 79.78125 C 206.789062 81.667969 205.785156 82.90625 203.699219 82.578125 C 201.660156 82.269531 201.058594 80.140625 202.210938 77.449219 C 202.773438 76.113281 204.273438 74.984375 205.585938 74.414062 C 206.90625 73.816406 208.019531 73.699219 208.019531 73.699219 " fill-opacity="1" fill-rule="nonzero"/></g></g></g></g></g></g><g clip-path="url(#380bab11c1)"><g clip-path="url(#537042edb0)"><g clip-path="url(#056e4636b1)"><g clip-path="url(#a441fa7e0a)"><path fill="#31632d" d="M 215.945312 89.839844 C 215.945312 89.839844 214.789062 90.542969 213.542969 91.476562 C 212.269531 92.398438 211 93.539062 209.828125 94.046875 C 207.480469 95.023438 205.675781 95.601562 204.097656 93.929688 C 203.351562 93.101562 203.238281 92.097656 203.808594 91.039062 C 204.375 89.988281 205.625 88.910156 207.382812 88.175781 C 209.148438 87.410156 211.5625 87.660156 213.234375 88.308594 C 214.082031 88.625 214.765625 89.011719 215.230469 89.316406 C 215.691406 89.632812 215.945312 89.839844 215.945312 89.839844 " fill-opacity="1" fill-rule="nonzero"/></g></g></g></g><g clip-path="url(#1a71b7c372)"><g clip-path="url(#108d87658f)"><g clip-path="url(#bf3de4378f)"><g clip-path="url(#9a25a82aa5)"><path fill="#31632d" d="M 195.191406 72.167969 C 195.191406 72.167969 195.402344 73.507812 195.792969 75.011719 C 196.160156 76.542969 196.730469 78.152344 196.757812 79.429688 C 196.765625 81.976562 196.613281 83.867188 194.472656 84.703125 C 193.421875 85.082031 192.453125 84.8125 191.691406 83.882812 C 190.9375 82.964844 190.414062 81.394531 190.40625 79.488281 C 190.367188 77.5625 191.511719 75.414062 192.75 74.109375 C 193.363281 73.441406 193.980469 72.953125 194.433594 72.636719 C 194.902344 72.324219 195.191406 72.167969 195.191406 72.167969 " fill-opacity="1" fill-rule="nonzero"/></g></g></g></g><g clip-path="url(#a4e104578c)"><g clip-path="url(#250b8319be)"><g clip-path="url(#588558643b)"><g clip-path="url(#17d04ad529)"><path fill="#31632d" d="M 170.742188 86.796875 C 170.742188 86.796875 171.996094 86.832031 173.503906 87.488281 C 175.007812 88.105469 176.726562 89.453125 177.316406 91.042969 C 177.921875 92.609375 177.984375 94.074219 177.597656 95.085938 C 177.21875 96.109375 176.40625 96.667969 175.257812 96.734375 C 174.085938 96.800781 173.261719 96.425781 172.640625 95.84375 C 172.015625 95.25 171.605469 94.429688 171.210938 93.40625 C 170.835938 92.398438 170.933594 90.882812 170.886719 89.457031 C 170.867188 88.046875 170.742188 86.796875 170.742188 86.796875 " fill-opacity="1" fill-rule="nonzero"/></g></g></g></g><g clip-path="url(#b6a52f1915)"><g clip-path="url(#982e8c24ef)"><g clip-path="url(#de580638f3)"><g clip-path="url(#34f0c58cb0)"><path fill="#31632d" d="M 143.683594 142.800781 C 143.683594 142.800781 145.199219 142.617188 147.136719 143.125 C 149.0625 143.597656 151.378906 144.90625 152.378906 146.714844 C 153.390625 148.492188 153.730469 150.242188 153.453125 151.53125 C 153.179688 152.832031 152.300781 153.652344 150.929688 153.941406 C 149.53125 154.238281 148.46875 153.933594 147.613281 153.34375 C 146.753906 152.746094 146.109375 151.832031 145.449219 150.675781 C 144.8125 149.527344 144.65625 147.6875 144.339844 145.976562 C 144.058594 144.28125 143.683594 142.800781 143.683594 142.800781 " fill-opacity="1" fill-rule="nonzero"/></g></g></g></g><g clip-path="url(#5afa245341)"><g clip-path="url(#12ab7324ab)"><g clip-path="url(#d8e3fd8aab)"><g clip-path="url(#50e23872cd)"><path fill="#31632d" d="M 165.488281 148.671875 C 165.488281 148.671875 167.011719 148.714844 168.851562 149.511719 C 170.6875 150.261719 172.777344 151.902344 173.496094 153.84375 C 174.234375 155.753906 174.308594 157.535156 173.839844 158.765625 C 173.375 160.015625 172.390625 160.691406 170.988281 160.773438 C 169.5625 160.859375 168.554688 160.398438 167.796875 159.6875 C 167.039062 158.96875 166.535156 157.964844 166.054688 156.722656 C 165.601562 155.492188 165.71875 153.648438 165.664062 151.910156 C 165.636719 150.191406 165.488281 148.671875 165.488281 148.671875 " fill-opacity="1" fill-rule="nonzero"/></g></g></g></g><g clip-path="url(#8dd610fde4)"><g clip-path="url(#9456c488fb)"><g clip-path="url(#f73c7bd800)"><g clip-path="url(#2fa6735f09)"><g clip-path="url(#a80b38000b)"><g clip-path="url(#a61bb803b6)"><path fill="#92d122" d="M 193.226562 173.628906 C 193.226562 173.628906 193.113281 173.265625 192.847656 172.660156 C 192.574219 172.070312 192.117188 171.257812 191.417969 170.441406 C 190.066406 168.796875 187.546875 167.242188 185.230469 167.289062 C 182.941406 167.292969 181.0625 168.03125 180.039062 169.039062 C 179 170.054688 178.828125 171.289062 179.425781 172.550781 C 180.035156 173.847656 180.929688 174.5 181.894531 174.871094 C 182.867188 175.234375 183.949219 175.28125 185.257812 175.277344 C 186.535156 175.253906 188.21875 174.542969 189.945312 174.15625 C 190.789062 173.953125 191.609375 173.816406 192.21875 173.738281 C 192.828125 173.671875 193.226562 173.628906 193.226562 173.628906 " fill-opacity="1" fill-rule="nonzero"/></g></g></g></g></g></g><g clip-path="url(#841d997a2c)"><g clip-path="url(#9a58974859)"><g clip-path="url(#0d8e608a9a)"><g clip-path="url(#a695cc3db1)"><path fill="#92d122" d="M 184.328125 109.144531 C 184.328125 109.144531 183.195312 109.726562 181.960938 110.515625 C 180.703125 111.292969 179.429688 112.273438 178.296875 112.667969 C 177.144531 113.054688 176.167969 113.335938 175.277344 113.324219 C 174.394531 113.304688 173.582031 113.011719 172.929688 112.160156 C 172.289062 111.328125 172.25 110.378906 172.859375 109.429688 C 173.460938 108.484375 174.710938 107.554688 176.410156 106.992188 C 178.121094 106.394531 180.367188 106.796875 181.890625 107.523438 C 182.664062 107.878906 183.277344 108.289062 183.691406 108.605469 C 184.101562 108.933594 184.328125 109.144531 184.328125 109.144531 " fill-opacity="1" fill-rule="nonzero"/></g></g></g></g><g clip-path="url(#a5d8806397)"><g clip-path="url(#4326d94c0f)"><g clip-path="url(#4ba532a8b5)"><g clip-path="url(#79fa63da95)"><path fill="#31632d" d="M 191.386719 135.453125 C 191.386719 135.453125 190.976562 135.335938 190.25 135.210938 C 189.53125 135.105469 188.492188 135.035156 187.300781 135.1875 C 184.933594 135.441406 181.925781 136.84375 180.539062 139.042969 C 179.128906 141.1875 178.65625 143.398438 178.960938 144.972656 C 179.261719 146.570312 180.308594 147.492188 181.855469 147.707031 C 183.441406 147.933594 184.601562 147.496094 185.542969 146.820312 C 186.480469 146.132812 187.191406 145.152344 188 143.925781 C 188.765625 142.714844 189.144531 140.703125 189.847656 138.847656 C 190.183594 137.933594 190.5625 137.085938 190.863281 136.460938 C 191.179688 135.851562 191.386719 135.453125 191.386719 135.453125 " fill-opacity="1" fill-rule="nonzero"/></g></g></g></g><g clip-path="url(#ac8dd706c3)"><g clip-path="url(#09176348e4)"><g clip-path="url(#3c9d4ba627)"><g clip-path="url(#bd7115d5c7)"><path fill="#31632d" d="M 154.753906 91.433594 C 154.753906 91.433594 155.089844 91.351562 155.6875 91.277344 C 156.273438 91.214844 157.121094 91.195312 158.085938 91.359375 C 160 91.648438 162.394531 92.890625 163.441406 94.726562 C 164.507812 96.519531 164.808594 98.332031 164.503906 99.605469 C 164.199219 100.894531 163.316406 101.605469 162.050781 101.726562 C 160.75 101.855469 159.824219 101.460938 159.085938 100.882812 C 158.34375 100.289062 157.800781 99.464844 157.195312 98.441406 C 156.617188 97.429688 156.382812 95.78125 155.878906 94.25 C 155.640625 93.492188 155.363281 92.789062 155.140625 92.273438 C 154.90625 91.765625 154.753906 91.433594 154.753906 91.433594 " fill-opacity="1" fill-rule="nonzero"/></g></g></g></g><g clip-path="url(#b4096b8ee5)"><g clip-path="url(#0de10768e8)"><g clip-path="url(#09481a1cb9)"><g clip-path="url(#c102396fe3)"><path fill="#31632d" d="M 177.777344 121.664062 C 177.777344 121.664062 176.585938 122.167969 175.277344 122.878906 C 173.941406 123.574219 172.578125 124.476562 171.398438 124.792969 C 170.199219 125.09375 169.1875 125.308594 168.289062 125.230469 C 167.394531 125.144531 166.589844 124.789062 165.988281 123.875 C 165.398438 122.984375 165.433594 122.019531 166.121094 121.097656 C 166.804688 120.183594 168.140625 119.335938 169.90625 118.886719 C 171.683594 118.410156 173.933594 118.984375 175.425781 119.835938 C 176.183594 120.253906 176.777344 120.71875 177.171875 121.070312 C 177.570312 121.433594 177.777344 121.664062 177.777344 121.664062 " fill-opacity="1" fill-rule="nonzero"/></g></g></g></g><g clip-path="url(#5b6117e7b8)"><g clip-path="url(#b0ee83e50f)"><g clip-path="url(#71a9f7b1cd)"><g clip-path="url(#4590edc376)"><path fill="#92d122" d="M 152.320312 108.039062 C 152.320312 108.039062 152.621094 107.867188 153.175781 107.628906 C 153.722656 107.40625 154.53125 107.152344 155.503906 107.042969 C 157.425781 106.785156 160.070312 107.316406 161.582031 108.789062 C 163.105469 110.210938 163.898438 111.871094 163.953125 113.175781 C 164.015625 114.5 163.363281 115.425781 162.183594 115.898438 C 160.96875 116.382812 159.96875 116.257812 159.097656 115.90625 C 158.222656 115.546875 157.472656 114.90625 156.605469 114.089844 C 155.769531 113.28125 155.089844 111.761719 154.179688 110.429688 C 153.742188 109.769531 153.28125 109.171875 152.921875 108.738281 C 152.558594 108.316406 152.320312 108.039062 152.320312 108.039062 " fill-opacity="1" fill-rule="nonzero"/></g></g></g></g><g clip-path="url(#9f895c6af7)"><g clip-path="url(#e7a4e2258c)"><g clip-path="url(#df1a60245e)"><g clip-path="url(#620e8ab29e)"><path fill="#92d122" d="M 153.957031 118.800781 C 153.957031 118.800781 154.234375 118.890625 154.707031 119.089844 C 155.171875 119.292969 155.816406 119.628906 156.503906 120.121094 C 157.878906 121.082031 159.355469 122.808594 159.652344 124.335938 C 159.976562 125.847656 159.714844 127.0625 159.136719 127.695312 C 158.554688 128.34375 157.691406 128.410156 156.699219 127.964844 C 155.679688 127.507812 155.085938 126.890625 154.683594 126.242188 C 154.28125 125.582031 154.09375 124.867188 153.910156 124 C 153.746094 123.160156 154.015625 122.074219 154.046875 120.949219 C 154.070312 120.398438 154.054688 119.863281 154.023438 119.460938 C 153.984375 119.0625 153.957031 118.800781 153.957031 118.800781 " fill-opacity="1" fill-rule="nonzero"/></g></g></g></g><g clip-path="url(#ea4ab229ee)"><g clip-path="url(#445ae5d24e)"><g clip-path="url(#58c1770fb2)"><g clip-path="url(#8057b904dd)"><path fill="#31632d" d="M 212.023438 103.855469 C 212.023438 103.855469 210.578125 104.621094 209.007812 105.65625 C 207.402344 106.675781 205.785156 107.957031 204.339844 108.480469 C 202.863281 108.996094 201.617188 109.375 200.476562 109.371094 C 199.339844 109.363281 198.292969 109 197.4375 107.917969 C 196.601562 106.863281 196.535156 105.644531 197.304688 104.414062 C 198.0625 103.1875 199.648438 101.976562 201.824219 101.222656 C 204.007812 100.429688 206.898438 100.90625 208.867188 101.8125 C 209.867188 102.257812 210.660156 102.773438 211.195312 103.175781 C 211.734375 103.585938 212.023438 103.855469 212.023438 103.855469 " fill-opacity="1" fill-rule="nonzero"/></g></g></g></g><g clip-path="url(#018d776019)"><g clip-path="url(#6ed9316775)"><g clip-path="url(#8073b09749)"><g clip-path="url(#b2b6ee6144)"><path fill="#3d2419" d="M 203.714844 83.109375 C 203.652344 83.132812 203.726562 83.445312 203.796875 84.007812 C 203.859375 84.574219 203.90625 85.398438 203.738281 86.398438 C 203.578125 87.398438 203.214844 88.570312 202.605469 89.785156 C 201.996094 91.011719 201.148438 92.28125 200.222656 93.648438 C 199.761719 94.332031 199.285156 95.042969 198.832031 95.804688 C 198.378906 96.5625 197.949219 97.351562 197.546875 98.164062 C 196.746094 99.789062 196.042969 101.492188 195.410156 103.183594 C 194.195312 106.417969 193.132812 109.582031 191.980469 112.179688 C 192.050781 111.925781 192.121094 111.671875 192.1875 111.425781 C 192.570312 110.019531 192.863281 108.644531 193.121094 107.316406 C 193.621094 104.660156 193.9375 102.179688 194.136719 99.917969 C 194.527344 95.402344 194.566406 91.777344 194.550781 89.28125 C 194.523438 86.789062 194.417969 85.417969 194.246094 85.410156 C 194.070312 85.402344 193.835938 86.757812 193.53125 89.226562 C 193.222656 91.695312 192.867188 95.285156 192.183594 99.679688 C 191.476562 104.0625 190.4375 109.292969 188.210938 114.703125 C 187.105469 117.402344 185.675781 120.125 183.875 122.710938 C 182.050781 125.289062 179.851562 127.671875 177.179688 129.710938 C 174.511719 131.78125 171.4375 133.601562 168.300781 135.671875 C 166.734375 136.710938 165.152344 137.820312 163.625 139.078125 C 162.105469 140.324219 160.644531 141.742188 159.359375 143.296875 C 159.363281 143.195312 159.367188 143.097656 159.371094 142.996094 C 159.449219 141.179688 158.980469 138.589844 159.964844 135.640625 C 160.445312 134.164062 161.050781 132.539062 161.683594 130.824219 C 162.003906 129.960938 162.316406 129.101562 162.660156 128.230469 C 163.007812 127.351562 163.359375 126.457031 163.714844 125.558594 C 164.421875 123.742188 165.117188 121.851562 165.585938 119.90625 C 165.894531 118.621094 166.09375 117.339844 166.214844 116.085938 C 166.613281 115.363281 167.214844 114.527344 168.164062 113.605469 C 168.742188 113.03125 169.417969 112.421875 170.125 111.746094 C 170.824219 111.070312 171.558594 110.308594 172.164062 109.410156 C 173.386719 107.613281 173.984375 105.511719 174.390625 103.6875 C 175.15625 100.019531 175.625 97.183594 175.449219 97.136719 C 175.257812 97.085938 174.441406 99.871094 173.445312 103.441406 C 172.929688 105.207031 172.253906 107.136719 171.125 108.675781 C 170.003906 110.207031 168.414062 111.386719 167.191406 112.621094 C 166.878906 112.921875 166.597656 113.226562 166.34375 113.527344 C 166.335938 110.113281 165.667969 107.152344 164.941406 105.109375 C 164.164062 102.929688 163.382812 101.757812 163.226562 101.828125 C 163.03125 101.910156 163.46875 103.21875 163.902344 105.398438 C 164.335938 107.570312 164.703125 110.648438 164.382812 114.066406 C 164.21875 115.773438 163.890625 117.550781 163.371094 119.308594 C 162.851562 121.070312 162.117188 122.828125 161.355469 124.589844 C 160.972656 125.476562 160.589844 126.363281 160.210938 127.234375 C 159.835938 128.121094 159.484375 129.011719 159.152344 129.855469 C 158.480469 131.566406 157.84375 133.210938 157.332031 134.789062 C 156.816406 136.363281 156.464844 137.835938 156.285156 139.160156 C 156.109375 140.484375 156.0625 141.640625 156.097656 142.625 C 156.160156 144.59375 156.386719 145.914062 156.585938 146.820312 C 156.601562 146.890625 156.617188 146.957031 156.632812 147.019531 C 155.28125 149.175781 154.164062 151.484375 153.238281 153.84375 C 151.804688 157.636719 150.855469 161.585938 150.335938 165.539062 C 149.78125 169.492188 149.675781 173.460938 149.753906 177.304688 C 149.847656 181.15625 150.125 184.914062 150.441406 188.546875 C 150.753906 192.183594 151.101562 195.707031 151.332031 199.089844 C 151.570312 202.472656 151.714844 205.738281 151.671875 208.816406 C 151.578125 214.984375 138.816406 246.09375 137.441406 250.582031 C 136.753906 252.828125 135.90625 254.839844 134.992188 256.640625 C 134.550781 257.550781 134.035156 258.375 133.5625 259.183594 C 133.308594 259.578125 133.042969 259.949219 132.792969 260.324219 C 132.667969 260.511719 132.542969 260.695312 132.417969 260.878906 C 132.285156 261.054688 132.148438 261.226562 132.015625 261.398438 C 130.996094 262.796875 129.882812 263.960938 128.808594 265.007812 C 127.726562 266.046875 126.675781 266.957031 125.660156 267.75 C 123.644531 269.347656 121.855469 270.546875 120.394531 271.539062 C 120.171875 271.6875 119.960938 271.828125 119.753906 271.96875 L 127.316406 274.648438 C 127.613281 274.492188 127.898438 274.292969 128.164062 274.042969 C 130.242188 272.085938 132.050781 269.636719 133.773438 267.371094 C 137.292969 262.734375 140.378906 257.648438 142.164062 252.074219 C 143.773438 247.066406 156.632812 215.464844 156.730469 208.882812 C 156.800781 203.820312 156.378906 198.503906 155.859375 193.050781 C 156.195312 192.296875 156.625 191.472656 157.21875 190.605469 C 157.878906 189.625 158.742188 188.625 159.910156 187.660156 C 161.089844 186.691406 162.578125 185.777344 164.238281 184.800781 C 165.066406 184.308594 165.933594 183.796875 166.8125 183.226562 C 167.253906 182.941406 167.683594 182.625 168.113281 182.3125 L 168.761719 181.839844 C 168.96875 181.671875 169.175781 181.5 169.382812 181.332031 C 171.042969 179.980469 172.570312 178.449219 173.921875 176.855469 C 175.269531 175.253906 176.453125 173.597656 177.488281 171.992188 C 178.53125 170.390625 179.414062 168.828125 180.171875 167.402344 C 180.933594 165.976562 181.554688 164.679688 182.058594 163.589844 C 183.054688 161.398438 183.546875 160.019531 183.34375 159.910156 C 183.140625 159.792969 182.253906 160.964844 180.914062 162.941406 C 180.242188 163.929688 179.460938 165.117188 178.5625 166.421875 C 177.664062 167.730469 176.664062 169.164062 175.542969 170.617188 C 175.203125 171.058594 174.851562 171.5 174.496094 171.941406 C 174.457031 170.78125 174.410156 169.136719 174.535156 166.804688 C 174.632812 164.964844 174.875 162.800781 175.328125 160.621094 C 175.769531 158.441406 176.417969 156.25 177.152344 154.332031 C 177.882812 152.414062 178.664062 150.757812 179.253906 149.578125 C 179.855469 148.402344 180.21875 147.675781 180.117188 147.605469 C 180.027344 147.542969 179.476562 148.148438 178.691406 149.238281 C 177.917969 150.335938 176.949219 151.949219 176.054688 153.871094 C 175.152344 155.789062 174.359375 158.027344 173.8125 160.28125 C 173.257812 162.53125 172.953125 164.789062 172.851562 166.714844 C 172.695312 169.644531 172.507812 172.539062 172.542969 174.222656 C 172.3125 174.476562 172.082031 174.734375 171.84375 174.984375 C 170.496094 176.394531 169.023438 177.722656 167.472656 178.878906 L 166.894531 179.3125 L 166.296875 179.714844 C 165.898438 179.984375 165.507812 180.25 165.097656 180.496094 C 164.28125 180.988281 163.4375 181.460938 162.59375 181.933594 C 160.910156 182.875 159.21875 183.863281 157.777344 185.046875 C 156.804688 185.847656 155.992188 186.703125 155.328125 187.554688 C 154.671875 180.53125 154.09375 173.269531 154.960938 166.121094 C 155.375 162.453125 156.183594 158.835938 157.40625 155.398438 C 158.667969 151.984375 160.335938 148.738281 162.570312 145.992188 C 163.667969 144.597656 164.890625 143.347656 166.230469 142.183594 C 167.570312 141.019531 169.015625 139.945312 170.496094 138.90625 C 173.457031 136.820312 176.574219 134.855469 179.40625 132.511719 C 180.824219 131.347656 182.164062 130.066406 183.351562 128.714844 C 184.542969 127.367188 185.601562 125.953125 186.539062 124.511719 C 187.433594 123.121094 188.21875 121.707031 188.914062 120.289062 C 189.160156 120.027344 189.410156 119.738281 189.671875 119.417969 C 190.808594 118.007812 192.113281 116.015625 193.355469 113.238281 C 194.621094 110.464844 195.691406 107.082031 196.867188 103.714844 C 197.457031 102.03125 198.089844 100.355469 198.808594 98.761719 C 199.171875 97.96875 199.554688 97.195312 199.957031 96.453125 C 200.363281 95.710938 200.796875 94.996094 201.226562 94.292969 C 202.085938 92.886719 202.898438 91.515625 203.460938 90.183594 C 204.027344 88.84375 204.320312 87.554688 204.390625 86.46875 C 204.464844 85.382812 204.304688 84.503906 204.128906 83.9375 C 203.945312 83.367188 203.761719 83.089844 203.714844 83.109375 " fill-opacity="1" fill-rule="nonzero"/></g></g></g></g><g fill="#3d2419" fill-opacity="1"><g transform="translate(140.969496, 230.727232)"><g><path d="M 64.707031 -68.476562 L 56.171875 -68.476562 L 56.171875 -37.117188 L 18.460938 -37.117188 L 18.460938 -68.476562 L 9.925781 -68.476562 L 9.925781 0 L 18.460938 0 L 18.460938 -29.972656 L 56.171875 -29.972656 L 56.171875 0 L 64.707031 0 Z M 64.707031 -68.476562 "/></g></g></g></svg>